<?xml version="1.0" encoding="utf-8"?>
<svg xmlns="http://www.w3.org/2000/svg" viewBox="0 0 128 128">
  <path d="M 116 64 C 116 92.719 92.719 116 64 116 C 35.281 116 12 92.719 12 64 C 12 35.281 35.281 12 64 12 C 92.719 12 116 35.281 116 64 Z" style="fill: rgb(106, 93, 33);"/>
  <path d="M 110 53.678 C 110 59.812 108.452 65.585 105.725 70.627 L 109.011 85.408 L 114.103 59.771 L 109.021 37.994 L 105.228 35.841 C 108.263 41.088 110 47.18 110 53.678 Z M 38.644 53.678 C 38.644 47.781 40.075 42.218 42.608 37.317 L 18.959 38.957 L 18.93 88.704 L 43.033 70.835 C 40.235 65.744 38.644 59.897 38.644 53.678 Z M 116 64 C 116 92.719 92.719 116 64 116 C 35.281 116 12 92.719 12 64 C 12 35.281 35.281 12 64 12 C 64.013 12 64.025 12 64.038 12 L 20.932 36.864 L 43.772 35.239 C 50.019 24.91 61.357 18.005 74.307 18 L 64.038 12 C 92.74 12.021 116 35.294 116 64 Z M 19.866 90.495 L 63.094 115.491 L 73.213 89.339 C 60.908 88.963 50.171 82.357 44.049 72.568 Z M 65.35 115.207 L 108.212 90.514 L 104.241 73.123 C 98.053 82.625 87.46 88.997 75.357 89.341 Z" style="fill: rgb(23, 23, 23);"/>
  <path d="M 47.022 37.831 L 47.022 69.585 L 74.522 85.462 L 102.022 69.585 L 102.022 37.831 L 74.522 21.954 L 47.022 37.831 Z" style="fill: rgb(108, 29, 41);"/>
</svg>